HIERARCHY
ROOT Hips
{
	OFFSET -0.001795 -0.223333 0.028219
	CHANNELS 6 Xposition Yposition Zposition Zrotation Yrotation Xrotation 
	JOINT LeftUpLeg
	{
		OFFSET 0.069520 -0.091406 -0.006815
		CHANNELS 3 Zrotation Yrotation Xrotation
		JOINT LeftLeg
		{
			OFFSET 0.034277 -0.375199 -0.004496
			CHANNELS 3 Zrotation Yrotation Xrotation
			JOINT LeftFoot
			{
				OFFSET -0.013596 -0.397961 -0.043693
				CHANNELS 3 Zrotation Yrotation Xrotation
				JOINT LeftToe
				{
					OFFSET 0.026358 -0.055791 0.119288
					CHANNELS 3 Zrotation Yrotation Xrotation
					End Site
					{
						OFFSET 0.000000 0.000000 0.000000
					}
				}
			}
		}
	}
	JOINT RightUpLeg
	{
		OFFSET -0.067670 -0.090522 -0.004320
		CHANNELS 3 Zrotation Yrotation Xrotation
		JOINT RightLeg
		{
			OFFSET -0.038290 -0.382569 -0.008850
			CHANNELS 3 Zrotation Yrotation Xrotation
			JOINT RightFoot
			{
				OFFSET 0.015774 -0.398415 -0.042312
				CHANNELS 3 Zrotation Yrotation Xrotation
				JOINT RightToe
				{
					OFFSET -0.025372 -0.048144 0.123348
					CHANNELS 3 Zrotation Yrotation Xrotation
					End Site
					{
						OFFSET 0.000000 0.000000 0.000000
					}
				}
			}
		}
	}
	JOINT Spine
	{
		OFFSET -0.002533 0.108963 -0.026696
		CHANNELS 3 Zrotation Yrotation Xrotation
		JOINT Spine1
		{
			OFFSET 0.005487 0.135180 0.001092
			CHANNELS 3 Zrotation Yrotation Xrotation
			JOINT Spine2
			{
				OFFSET 0.001457 0.052922 0.025425
				CHANNELS 3 Zrotation Yrotation Xrotation
				JOINT Neck
				{
					OFFSET -0.002778 0.213870 -0.042857
					CHANNELS 3 Zrotation Yrotation Xrotation
					JOINT Head
					{
						OFFSET 0.005152 0.064970 0.051349
						CHANNELS 3 Zrotation Yrotation Xrotation
						End Site
						{
							OFFSET 0.000000 0.000000 0.000000
						}
					}
				}
				JOINT LeftShoulder
				{
					OFFSET 0.078845 0.121749 -0.034090
					CHANNELS 3 Zrotation Yrotation Xrotation
					JOINT LeftArm
					{
						OFFSET 0.090977 0.030469 -0.008868
						CHANNELS 3 Zrotation Yrotation Xrotation
						JOINT LeftForeArm
						{
							OFFSET 0.259612 -0.012772 -0.027456
							CHANNELS 3 Zrotation Yrotation Xrotation
							JOINT LeftHand
							{
								OFFSET 0.249234 0.008986 -0.001171
								CHANNELS 3 Zrotation Yrotation Xrotation
								End Site
								{
									OFFSET 0.000000 0.000000 0.000000
								}
							}
						}
					}
				}
				JOINT RightShoulder
				{
					OFFSET -0.081759 0.118833 -0.038615
					CHANNELS 3 Zrotation Yrotation Xrotation
					JOINT RightArm
					{
						OFFSET -0.096012 0.032551 -0.009143
						CHANNELS 3 Zrotation Yrotation Xrotation
						JOINT RightForeArm
						{
							OFFSET -0.253742 -0.013329 -0.021401
							CHANNELS 3 Zrotation Yrotation Xrotation
							JOINT RightHand
							{
								OFFSET -0.255298 0.007772 -0.005559
								CHANNELS 3 Zrotation Yrotation Xrotation
								End Site
								{
									OFFSET 0.000000 0.000000 0.000000
								}
							}
						}
					}
				}
			}
		}
	}
}
MOTION
Frames: 7
Frame Time: 0.050000
0.000000 0.944476 0.000000 -0.464216 -9.653235 6.829929 7.486436 -0.227667 -8.925737 -0.412236 -0.029157 3.975968 28.660358 33.911330 48.877314 0.000000 0.000000 0.000000 -9.656059 0.804848 -9.518275 6.618357 -0.581011 6.556222 -21.213699 -31.773858 50.193841 0.000000 0.000000 0.000000 4.687710 -1.379996 18.929502 -6.608406 2.115344 -19.096498 2.182649 13.452745 26.254536 20.397266 -11.510928 -19.138641 0.000000 0.000000 0.000000 10.631252 -14.901127 4.635252 -31.134557 -12.863487 -2.238698 -96.084675 -73.629894 80.312235 0.000000 0.000000 0.000000 3.511749 14.577243 5.969157 52.447040 63.753819 26.395433 7.554276 76.682492 13.071772 0.000000 0.000000 0.000000 
-0.000672 0.943435 -0.005612 -0.219836 -9.472647 7.814364 7.775847 -0.240754 -9.806077 -1.119651 0.097087 2.852452 28.823609 34.083768 48.732161 0.000000 0.000000 0.000000 -9.328183 0.897684 -11.885049 6.452043 -0.566429 8.283880 -23.466078 -33.674124 49.816080 0.000000 0.000000 0.000000 4.771996 -1.417827 18.861129 -5.374689 1.801924 -16.964502 1.620921 13.408015 24.971833 21.729996 -13.265539 -16.655219 0.000000 0.000000 0.000000 8.291483 -13.803197 4.474023 -29.891645 -10.741456 -2.511259 -99.676064 -69.333063 79.125104 0.000000 0.000000 0.000000 5.256499 14.914667 6.465711 52.723336 61.863824 25.243290 -3.493135 76.325774 4.378974 0.000000 0.000000 0.000000 
-0.000659 0.941908 -0.011283 0.525316 -7.587219 8.251922 7.753086 -0.313752 -11.293043 -2.093929 0.231492 3.009732 27.842749 33.792397 47.144455 0.000000 0.000000 0.000000 -10.318402 0.820800 -11.974129 7.078184 -0.709396 8.097625 -23.320222 -33.854565 48.057956 0.000000 0.000000 0.000000 5.057697 -1.623206 20.265491 -4.250233 1.505607 -16.952800 0.434874 12.544806 25.385038 21.166746 -12.365231 -17.950362 0.000000 0.000000 0.000000 7.546803 -13.017883 4.299098 -31.868400 -12.411483 -2.356399 -92.461620 -67.510194 70.279957 0.000000 0.000000 0.000000 5.209376 14.743781 6.454420 53.821526 59.057666 24.022449 -6.486375 71.794488 2.116464 0.000000 0.000000 0.000000 
-0.000239 0.941326 -0.017295 0.797366 -7.593458 8.583512 8.190865 -0.288681 -12.084800 -3.292817 0.413156 2.973155 27.969105 33.891653 47.151167 0.000000 0.000000 0.000000 -10.765923 0.837396 -13.159845 7.867092 -0.842554 8.920059 -24.497884 -35.023264 47.258899 0.000000 0.000000 0.000000 5.581092 -1.845077 22.019857 -4.231566 1.507708 -16.388501 0.908352 12.137746 25.204929 22.053546 -12.549100 -19.172825 0.000000 0.000000 0.000000 7.000088 -13.837049 4.514061 -35.549965 -11.948584 -2.660885 -91.658082 -65.988732 68.497090 0.000000 0.000000 0.000000 6.360992 14.722678 6.644950 52.382089 58.369430 22.563594 -9.979526 64.527547 -0.619126 0.000000 0.000000 0.000000 
0.000651 0.940595 -0.023338 1.153326 -7.129394 8.977493 8.033258 -0.331837 -12.675441 -3.618389 0.452981 2.270499 27.827999 33.897716 46.790375 0.000000 0.000000 0.000000 -11.234777 0.819547 -13.799425 8.073416 -0.886455 8.694795 -25.195059 -35.545336 47.445585 0.000000 0.000000 0.000000 6.478375 -2.219111 24.076599 -3.676150 1.342972 -16.983220 0.731440 11.796234 25.669328 22.776866 -12.569299 -20.560969 0.000000 0.000000 0.000000 4.475981 -14.553066 4.762877 -37.789982 -12.349373 -2.689009 -88.002188 -65.173049 64.670968 0.000000 0.000000 0.000000 7.773569 15.039456 7.084253 51.207327 57.909772 21.384930 -15.353567 55.120118 -3.413086 0.000000 0.000000 0.000000 
0.001559 0.940753 -0.029909 1.915605 -6.032159 9.482849 7.801454 -0.409443 -13.321577 -4.539538 0.558617 1.059356 27.075682 33.532143 46.157261 0.000000 0.000000 0.000000 -12.136762 0.743931 -14.391059 8.301325 -0.950784 8.284409 -26.182632 -36.071237 48.372793 0.000000 0.000000 0.000000 6.996228 -2.541812 25.649004 -3.593419 1.339197 -17.040371 1.134213 11.315542 25.338125 22.941308 -12.090577 -22.078317 0.000000 0.000000 0.000000 1.723778 -16.769855 5.524267 -39.567702 -13.161907 -2.474528 -82.105480 -65.558287 60.046707 0.000000 0.000000 0.000000 8.505921 16.017043 7.698361 47.795479 56.822610 18.850584 -16.871585 45.067354 -3.602905 0.000000 0.000000 0.000000 
0.002288 0.941151 -0.036591 2.402698 -5.936304 9.954774 7.645942 -0.449327 -14.359623 -5.136278 0.635560 1.020909 26.905587 33.356196 46.401670 0.000000 0.000000 0.000000 -12.372047 0.741751 -15.379566 8.216982 -0.939173 8.223754 -27.845549 -37.322196 48.754809 0.000000 0.000000 0.000000 7.635108 -2.856348 27.258631 -3.336462 1.261526 -17.780379 1.511367 11.053500 25.859893 23.608836 -12.227691 -23.122096 0.000000 0.000000 0.000000 -0.377315 -16.913804 5.667562 -41.465292 -12.812524 -2.679626 -74.879984 -65.370239 54.091381 0.000000 0.000000 0.000000 9.319773 16.907270 8.256253 43.817292 56.694959 16.524455 -14.614078 34.276316 -2.303255 0.000000 0.000000 0.000000 
